# xmcd
#
# Track frame offsets: 
#        150
#        12075
#        30112
#        48037
#        55650
#        88050
#        104437
#        115462
#        137550
#        146662
#        160050
#
# Disc length: 2280 seconds
#
# Revision: 0
# Processed by: cddbd v1.5.1PL0 Copyright (c) Steve Scherf et al.
# Submitted via: ExactAudioCopy v0.95b2
#
DISCID=8208e60b
DTITLE=Fleck, Béla - Crossing the Tracks
DYEAR=1979
DGENRE=Progressive Bluegrass
TTITLE0=Dear Old Dixie
TTITLE1=Inman Square
TTITLE2=Texas Barbeque
TTITLE3=Growling Old Man and Grumbling Old Woman
TTITLE4=Spain
TTITLE5=Crossing the Tracks
TTITLE6=Spring Thaw
TTITLE7=How Can You Face Me Now
TTITLE8=Twilight
TTITLE9=Frosty Morning
TTITLE10=Ain't Gonna Work Tomorrow
EXTD=
EXTT0=
EXTT1=
EXTT2=
EXTT3=
EXTT4=
EXTT5=
EXTT6=
EXTT7=
EXTT8=
EXTT9=
EXTT10=
PLAYORDER=
